<?xml version="1.0" standalone="no"?>
<!DOCTYPE svg PUBLIC "-//W3C//DTD SVG 20010904//EN"
 "http://www.w3.org/TR/2001/REC-SVG-20010904/DTD/svg10.dtd">
<svg version="1.0" xmlns="http://www.w3.org/2000/svg"
 width="773.000000pt" height="705.000000pt" viewBox="0 0 773.000000 705.000000"
 preserveAspectRatio="xMidYMid meet">

<g transform="translate(0.000000,705.000000) scale(0.100000,-0.100000)"
fill="#000000" stroke="none">
<path d="M3102 6878 c-16 -29 -110 -199 -207 -378 -98 -179 -190 -347 -205
-375 -15 -27 -47 -86 -70 -130 -23 -44 -46 -84 -50 -90 -4 -5 -40 -73 -80
-150 -41 -77 -84 -156 -97 -175 -13 -19 -23 -38 -23 -43 0 -5 -17 -39 -38 -75
-22 -37 -42 -75 -45 -84 -6 -17 59 -18 1274 -18 l1281 0 -24 43 c-14 23 -34
58 -45 77 -48 82 -371 634 -428 730 -34 58 -84 142 -109 187 -26 46 -51 85
-56 88 -4 3 -18 -14 -30 -38 -33 -62 -320 -588 -334 -609 -6 -10 -14 -18 -18
-18 -3 0 -24 30 -46 68 -21 37 -99 168 -172 292 -73 124 -141 239 -151 257
-112 197 -274 471 -284 481 -10 11 -18 4 -43 -40z m186 -300 c77 -152 138
-279 135 -281 -12 -13 -32 7 -49 49 -10 24 -22 44 -26 44 -4 0 -8 -31 -8 -69
0 -39 -3 -72 -7 -74 -16 -10 -78 29 -91 57 l-14 28 -17 -29 c-10 -15 -20 -36
-24 -46 -5 -14 -11 -16 -27 -7 -11 6 -27 22 -36 35 -21 32 -41 32 -76 -2 l-27
-26 -11 27 c-5 15 -10 39 -10 54 l-1 27 -27 -32 c-27 -31 -72 -50 -91 -39 -5
4 13 54 44 119 132 280 215 450 219 446 1 -2 66 -129 144 -281z m997 -338 c52
-104 95 -192 95 -195 0 -3 -5 -5 -11 -5 -5 0 -15 13 -20 30 -15 41 -29 28 -29
-26 0 -52 -17 -58 -56 -19 -29 29 -34 30 -34 11 0 -7 -7 -19 -15 -26 -13 -11
-20 -9 -38 9 -27 25 -52 27 -61 6 -10 -26 -25 -16 -32 22 l-7 36 -19 -26 c-19
-26 -51 -36 -62 -19 -3 5 23 66 58 138 34 71 75 157 91 192 15 34 32 62 36 62
5 0 52 -85 104 -190z"/>
<path d="M1650 5689 c-100 -30 -152 -161 -100 -247 12 -19 410 -423 885 -899
476 -475 865 -870 865 -876 0 -7 -394 -406 -875 -887 -490 -491 -879 -887
-885 -903 -39 -107 43 -237 151 -237 86 0 63 -21 985 901 l881 881 876 -876
c584 -585 887 -881 911 -891 136 -57 274 63 237 205 -11 41 -86 118 -889 923
-482 483 -879 880 -882 883 -2 3 393 402 877 887 580 580 884 891 887 907 15
77 14 100 -7 142 -38 75 -117 109 -199 88 -39 -10 -134 -103 -925 -893 l-882
-881 -698 695 c-383 381 -776 774 -873 873 -96 98 -187 184 -201 192 -38 19
-98 25 -139 13z m2280 -2302 c0 -2 -10 -12 -22 -23 l-23 -19 19 23 c18 21 26
27 26 19z"/>
<path d="M5891 4594 c-118 -80 -361 -244 -542 -365 -366 -244 -313 -195 -498
-464 -35 -49 -119 -172 -189 -273 -70 -101 -137 -198 -149 -217 l-22 -33 24
-16 c24 -16 25 -15 68 47 45 64 109 157 307 443 63 91 116 160 117 153 2 -8 4
-153 5 -324 l3 -310 278 -3 279 -2 102 102 c191 194 311 414 386 713 17 65 33
142 36 171 6 51 24 77 24 35 0 -37 40 -220 69 -312 84 -272 251 -535 431 -678
l45 -36 273 3 272 3 2 326 3 326 155 -224 c85 -123 186 -268 224 -324 90 -133
88 -130 114 -108 l22 18 -102 147 c-57 81 -175 252 -263 379 -88 127 -173 241
-190 254 -37 27 -1065 715 -1068 714 -1 0 -98 -65 -216 -145z"/>
<path d="M565 4600 c-68 -10 -139 -45 -175 -86 -37 -43 -41 -101 -9 -153 11
-18 19 -34 17 -35 -79 -35 -144 -90 -173 -146 -29 -54 -25 -129 8 -179 15 -22
27 -44 27 -49 0 -5 -15 -15 -32 -24 -51 -25 -115 -85 -146 -136 -22 -39 -27
-59 -27 -112 1 -79 19 -120 83 -184 71 -72 260 -156 349 -156 l23 0 0 -305 0
-305 100 0 100 0 0 303 0 302 83 17 c153 32 299 124 348 220 52 102 30 198
-67 293 l-63 63 26 23 c59 55 80 150 49 224 -20 46 -88 110 -147 136 -52 24
-57 33 -34 63 8 11 15 38 15 59 0 78 -81 143 -205 166 -64 12 -76 12 -150 1z"/>
<path d="M1683 4433 c-23 -38 -60 -104 -82 -147 -51 -99 -56 -105 -155 -167
-45 -29 -90 -60 -101 -70 -11 -9 -44 -29 -72 -44 -29 -14 -53 -29 -53 -32 0
-3 50 -3 111 0 l111 6 -7 -27 c-24 -101 -94 -190 -187 -239 l-53 -28 40 -3
c36 -3 153 9 228 24 36 7 35 -5 -6 -69 -72 -112 -180 -191 -277 -204 -96 -13
-2 -23 223 -23 l237 0 0 -340 0 -340 110 0 110 0 0 340 0 340 218 1 c119 0
226 4 237 9 19 8 18 9 -4 9 -95 3 -214 81 -286 188 -48 73 -56 97 -27 89 34
-9 227 -28 252 -24 23 4 21 6 -22 27 -98 47 -175 143 -194 240 l-6 30 113 -5
114 -5 -57 33 c-74 44 -237 154 -267 181 -12 12 -36 49 -53 82 -48 97 -132
235 -143 235 -6 0 -29 -30 -52 -67z"/>
<path d="M3631 2643 c-59 -120 -111 -257 -142 -382 -16 -63 -31 -116 -33 -119
-2 -2 -10 14 -16 35 -18 56 -76 170 -113 221 l-32 44 -48 -52 c-85 -93 -149
-208 -184 -332 -14 -49 -18 -100 -18 -226 0 -163 0 -164 -17 -125 -10 21 -22
50 -27 66 -6 15 -14 27 -18 27 -5 0 -24 -26 -42 -57 -103 -178 -119 -391 -41
-555 100 -212 363 -357 648 -358 316 0 545 172 623 470 45 174 36 427 -22 605
-21 64 -109 245 -119 245 -3 0 -21 -54 -39 -120 -19 -66 -36 -120 -39 -120 -2
0 -2 30 2 68 16 164 -42 408 -133 560 -51 86 -126 182 -142 182 -5 0 -26 -35
-48 -77z m194 -851 c52 -106 77 -222 73 -343 -2 -55 -1 -99 2 -99 5 0 39 54
121 188 24 39 47 72 51 72 12 0 9 -61 -7 -147 -40 -211 -213 -414 -404 -473
-77 -24 -193 -26 -276 -5 -156 41 -329 195 -386 345 -18 48 -25 100 -14 100 3
0 41 -24 85 -54 89 -61 155 -81 244 -74 31 3 59 7 62 11 3 3 -10 20 -30 37
-19 17 -47 56 -62 86 -23 46 -26 63 -22 126 4 89 31 148 98 221 l47 51 -5 -76
c-4 -66 -1 -83 20 -129 34 -73 114 -166 186 -217 64 -45 110 -56 97 -24 -33
87 -44 229 -24 324 11 50 48 137 72 166 15 19 28 2 72 -86z"/>
<path d="M3044 837 c-87 -80 -35 -218 83 -217 72 1 123 53 123 125 0 74 -51
124 -128 125 -34 0 -49 -6 -78 -33z"/>
<path d="M3975 859 c-82 -43 -81 -189 3 -228 32 -15 88 -14 121 3 42 22 61 58
61 115 0 41 -5 57 -28 82 -24 27 -37 33 -83 35 -30 2 -63 -1 -74 -7z"/>
<path d="M3373 785 c-61 -26 -87 -100 -59 -164 22 -48 61 -71 121 -71 40 0 52
5 81 34 30 30 34 40 34 88 0 63 -18 94 -66 114 -41 17 -70 17 -111 -1z"/>
<path d="M3685 790 c-31 -13 -64 -48 -71 -76 -10 -41 3 -104 27 -130 25 -26
81 -46 107 -37 56 17 74 29 92 58 64 103 -44 232 -155 185z"/>
</g>
</svg>
