<?xml version="1.0" standalone="no"?>
<!DOCTYPE svg PUBLIC "-//W3C//DTD SVG 20010904//EN"
 "http://www.w3.org/TR/2001/REC-SVG-20010904/DTD/svg10.dtd">
<svg version="1.0" xmlns="http://www.w3.org/2000/svg"
 width="1280.000000pt" height="1280.000000pt" viewBox="0 0 1280.000000 1280.000000"
 preserveAspectRatio="xMidYMid meet">

<g transform="translate(0.000000,1280.000000) scale(0.100000,-0.100000)"
fill="#000000" stroke="none">
<path d="M5612 9918 c-28 -49 -338 -616 -420 -768 -19 -36 -43 -78 -52 -95
-10 -16 -66 -120 -125 -230 -59 -110 -122 -227 -140 -260 -18 -33 -44 -82 -59
-110 l-27 -50 1277 -3 c703 -1 1279 0 1281 2 2 2 -24 50 -58 107 -33 57 -89
151 -123 209 -35 58 -94 159 -133 225 -38 66 -117 201 -175 300 -58 99 -118
201 -133 227 -15 27 -31 50 -35 53 -4 3 -18 -14 -30 -38 -33 -62 -320 -588
-334 -609 -6 -10 -14 -18 -18 -18 -3 0 -24 30 -46 68 -21 37 -99 168 -172 292
-73 124 -140 239 -150 255 -157 274 -273 470 -285 483 -10 11 -18 4 -43 -40z
m186 -300 c77 -153 137 -280 133 -282 -13 -8 -28 9 -52 59 l-24 50 -3 -82 c-2
-46 -6 -83 -10 -83 -25 2 -79 40 -90 64 l-14 28 -17 -29 c-10 -15 -20 -36 -24
-45 -10 -26 -23 -22 -54 17 -34 42 -48 43 -85 8 l-27 -26 -11 27 c-5 15 -10
39 -10 54 l-1 27 -27 -32 c-27 -32 -71 -51 -91 -39 -5 4 13 54 44 119 132 280
215 450 219 446 2 -2 66 -129 144 -281z m997 -338 c52 -104 95 -192 95 -195 0
-3 -5 -5 -11 -5 -5 0 -15 13 -20 30 -15 41 -29 28 -29 -26 0 -52 -17 -58 -56
-19 -29 29 -34 30 -34 11 0 -7 -7 -19 -15 -26 -13 -11 -20 -9 -38 9 -27 25
-52 27 -61 6 -10 -26 -25 -16 -32 22 l-7 36 -19 -26 c-19 -26 -51 -36 -62 -19
-3 5 23 66 58 138 34 71 75 157 91 192 15 34 32 62 36 62 5 0 52 -85 104 -190z"/>
<path d="M4160 8729 c-100 -30 -152 -161 -100 -247 11 -18 410 -423 885 -899
476 -476 865 -870 865 -877 0 -6 -394 -405 -875 -886 -490 -491 -879 -887
-885 -903 -39 -107 43 -237 151 -237 86 0 63 -21 985 901 l881 881 875 -876
c597 -598 886 -881 911 -891 137 -57 275 63 238 205 -11 41 -86 118 -889 923
-482 483 -879 880 -882 883 -2 3 393 402 877 887 578 577 884 891 887 907 16
82 16 96 -6 140 -39 77 -117 112 -200 90 -39 -10 -134 -103 -925 -893 l-882
-881 -698 695 c-383 381 -776 774 -873 873 -96 98 -187 184 -201 192 -38 19
-98 25 -139 13z m2290 -2292 c0 -2 -10 -13 -23 -25 -18 -17 -24 -19 -24 -8 0
8 4 13 8 11 3 -3 12 2 19 10 12 14 20 19 20 12z"/>
<path d="M8400 7633 c-118 -80 -362 -244 -542 -364 l-326 -218 -74 -105 c-117
-168 -411 -593 -435 -630 l-22 -34 24 -16 c28 -19 -21 -83 374 489 63 90 116
164 117 162 2 -1 4 -148 5 -325 l2 -322 280 0 279 0 102 103 c146 147 229 276
313 482 43 104 99 310 109 402 6 50 24 76 24 34 0 -46 44 -236 80 -343 88
-263 249 -512 420 -647 l45 -36 273 3 272 3 2 326 3 326 155 -224 c85 -123
162 -233 170 -245 78 -116 134 -195 140 -199 5 -3 17 3 29 13 21 17 21 17 -81
164 -57 81 -175 252 -263 379 -88 127 -173 242 -190 254 -39 29 -1065 715
-1068 714 -1 0 -99 -66 -217 -146z"/>
<path d="M3075 7640 c-68 -10 -139 -45 -175 -86 -37 -43 -41 -101 -9 -153 11
-18 19 -34 17 -35 -175 -79 -245 -229 -158 -339 27 -34 25 -41 -12 -59 -51
-25 -115 -85 -146 -136 -22 -39 -27 -59 -27 -112 0 -41 7 -78 18 -101 27 -55
102 -124 176 -163 66 -35 196 -76 238 -76 l23 0 0 -305 0 -305 100 0 100 0 0
305 0 305 23 0 c42 0 172 41 238 76 129 68 193 156 193 264 0 81 -17 116 -96
191 l-58 56 26 24 c59 55 81 150 50 222 -18 44 -89 110 -147 138 -52 24 -57
33 -34 63 8 11 15 38 15 59 0 75 -78 140 -198 166 -58 12 -82 12 -157 1z"/>
<path d="M4201 7486 c-22 -35 -60 -103 -85 -152 -57 -108 -61 -112 -160 -175
-45 -29 -90 -60 -101 -70 -11 -9 -44 -29 -72 -44 -29 -14 -53 -29 -53 -32 0
-3 50 -3 111 0 l111 6 -7 -27 c-24 -101 -94 -190 -187 -239 l-53 -28 48 -3
c27 -2 92 4 145 12 53 9 98 13 101 11 16 -16 -92 -158 -157 -206 -49 -36 -130
-69 -170 -69 -21 0 -24 -2 -12 -10 9 -6 116 -10 253 -10 l237 0 0 -340 0 -340
110 0 110 0 0 340 0 340 218 1 c119 0 226 4 237 9 19 8 18 9 -4 9 -95 3 -214
81 -286 188 -51 76 -56 96 -22 89 53 -11 224 -28 247 -24 22 3 20 6 -25 28
-73 36 -147 114 -173 183 -34 90 -38 86 91 81 l112 -5 -57 33 c-74 44 -237
154 -266 181 -12 12 -39 53 -58 92 -35 67 -134 235 -139 235 -2 0 -21 -29 -44
-64z"/>
<path d="M6125 5648 c-56 -120 -128 -323 -140 -398 -11 -70 -21 -79 -35 -34
-17 54 -74 167 -111 221 l-31 45 -30 -29 c-84 -79 -169 -227 -205 -353 -14
-51 -18 -101 -18 -228 0 -163 0 -164 -17 -125 -10 21 -22 50 -27 66 -6 15 -14
27 -18 27 -14 0 -78 -120 -103 -190 -30 -89 -38 -234 -16 -318 71 -277 349
-462 693 -462 184 0 329 57 449 175 128 126 183 276 192 520 6 205 -30 375
-115 535 -53 99 -56 100 -77 22 -10 -37 -27 -92 -37 -122 l-19 -55 5 66 c14
176 -43 415 -134 567 -52 87 -127 182 -143 182 -5 0 -33 -51 -63 -112z m206
-809 c56 -112 81 -226 77 -350 -2 -55 -1 -99 2 -99 5 0 39 54 121 188 24 39
47 72 51 72 12 0 9 -61 -7 -147 -40 -211 -213 -414 -404 -473 -77 -24 -193
-26 -276 -5 -157 41 -324 190 -384 343 -19 48 -28 102 -16 102 2 0 40 -24 84
-54 89 -61 156 -81 245 -74 31 3 58 7 61 10 3 2 -15 26 -40 52 -59 64 -78 117
-73 203 4 83 32 145 98 216 l47 51 -5 -76 c-4 -66 -1 -83 20 -129 34 -73 114
-166 186 -217 64 -45 110 -56 97 -24 -33 87 -44 229 -24 324 11 49 48 137 71
165 16 19 25 8 69 -78z"/>
<path d="M5554 3877 c-86 -79 -35 -217 81 -217 74 0 125 51 125 125 0 76 -51
125 -130 125 -32 0 -48 -7 -76 -33z"/>
<path d="M6465 3877 c-38 -38 -50 -73 -41 -120 12 -59 59 -97 121 -97 77 0
125 49 125 127 0 78 -48 123 -131 123 -33 0 -47 -6 -74 -33z"/>
<path d="M5883 3825 c-61 -26 -87 -100 -59 -164 22 -48 61 -71 121 -71 40 0
52 5 81 34 30 30 34 40 34 88 0 63 -18 94 -66 114 -41 17 -70 17 -111 -1z"/>
<path d="M6200 3832 c-54 -24 -80 -62 -80 -119 0 -74 49 -126 118 -125 79 1
132 55 132 132 0 78 -100 143 -170 112z"/>
</g>
</svg>
